<svg xmlns="http://www.w3.org/2000/svg" viewBox="0 0 100 100">
  <circle cx="50" cy="50" r="50" fill="#111111"/>
  <g transform="translate(50,50) scale(2) translate(-44.5,-15.9)" fill="white">
    <path d="M38.57,20.85V8.03c0-1.84,.56-3.35,1.67-4.51,1.11-1.16,2.55-1.75,4.32-1.75s3.21,.58,4.32,1.75c1.11,1.17,1.67,2.67,1.67,4.51v12.82c0,.36-.18,.54-.54,.54h-2.23c-.36,0-.54-.18-.54-.54V7.91c0-.92-.24-1.66-.71-2.21-.47-.55-1.13-.83-1.98-.83s-1.5,.28-1.98,.83c-.47,.55-.71,1.29-.71,2.21v12.94c0,.36-.18,.54-.54,.54h-2.23c-.36,0-.54-.18-.54-.54Z"/>
    <path d="M43.11,28.2c-.37-.37-.56-.84-.56-1.4s.19-1.07,.56-1.44,.84-.56,1.4-.56,1.04,.19,1.42,.58c.38,.38,.58,.86,.58,1.42,0,.51-.2,.97-.6,1.36-.4,.4-.86,.6-1.4,.6s-1.03-.19-1.4-.56Z"/>
  </g>
</svg>
